STARTFONT 2.1
COMMENT converted Oberon font (using FontToBDF by R.Crelier 10.1.91)
FONT Times20.Scn.Fnt
SIZE 20 75 75
FONTBOUNDINGBOX  20 23 0 -5
STARTPROPERTIES 3
FONT_ASCENT 18
FONT_DESCENT 5
DEFAULT_CHAR 0
ENDPROPERTIES
CHARS 121
STARTCHAR c0
ENCODING -1 0
SWIDTH 0 0
DWIDTH 0 0
BBX 0 0 0 0
BITMAP
ENDCHAR
STARTCHAR c9
ENCODING -1 9
SWIDTH 645 0
DWIDTH 20 0
BBX 0 0 0 0
BITMAP
ENDCHAR
STARTCHAR c32
ENCODING -1 32
SWIDTH 161 0
DWIDTH 5 0
BBX 0 0 0 0
BITMAP
ENDCHAR
STARTCHAR c33
ENCODING -1 33
SWIDTH 225 0
DWIDTH 7 0
BBX 2 15 3 0
BITMAP
C0
C0
C0
C0
C0
80
C0
80
80
80
00
00
00
C0
C0
ENDCHAR
STARTCHAR c34
ENCODING -1 34
SWIDTH 290 0
DWIDTH 9 0
BBX 7 5 1 10
BITMAP
CC
EE
66
44
88
ENDCHAR
STARTCHAR c35
ENCODING -1 35
SWIDTH 419 0
DWIDTH 13 0
BBX 9 15 2 0
BITMAP
0900
0900
1200
1200
7F80
7F80
1200
2400
2400
FF00
FF00
2400
4800
4800
4800
ENDCHAR
STARTCHAR c36
ENCODING -1 36
SWIDTH 419 0
DWIDTH 13 0
BBX 9 19 2 -2
BITMAP
0800
0800
3E80
6B80
C980
C880
C880
E800
7800
1C00
0F00
0B80
8980
8980
C980
EB00
BE00
0800
0800
ENDCHAR
STARTCHAR c37
ENCODING -1 37
SWIDTH 483 0
DWIDTH 15 0
BBX 13 15 1 0
BITMAP
3020
4840
CC40
CC80
CC80
CD00
4900
3260
0490
0598
0998
0998
1198
1090
2060
ENDCHAR
STARTCHAR c38
ENCODING -1 38
SWIDTH 548 0
DWIDTH 17 0
BBX 15 15 2 0
BITMAP
0F00
1880
1880
1880
1900
0E7E
0E18
1710
6310
C1A0
C1E0
C0C0
C0E0
E170
7E3C
ENDCHAR
STARTCHAR c39
ENCODING -1 39
SWIDTH 161 0
DWIDTH 5 0
BBX 3 5 1 10
BITMAP
C0
E0
60
40
80
ENDCHAR
STARTCHAR c40
ENCODING -1 40
SWIDTH 258 0
DWIDTH 8 0
BBX 6 22 1 -5
BITMAP
04
08
10
30
20
60
60
C0
C0
C0
C0
C0
C0
C0
C0
60
60
20
30
10
08
04
ENDCHAR
STARTCHAR c41
ENCODING -1 41
SWIDTH 258 0
DWIDTH 8 0
BBX 6 22 1 -5
BITMAP
80
40
20
30
10
18
18
0C
0C
0C
0C
0C
0C
0C
0C
18
18
10
30
20
40
80
ENDCHAR
STARTCHAR c42
ENCODING -1 42
SWIDTH 419 0
DWIDTH 13 0
BBX 9 11 2 0
BITMAP
0800
0800
8880
4900
2A00
1C00
2A00
4900
8880
0800
0800
ENDCHAR
STARTCHAR c43
ENCODING -1 43
SWIDTH 419 0
DWIDTH 13 0
BBX 11 11 1 0
BITMAP
0400
0400
0400
0400
0400
FFE0
0400
0400
0400
0400
0400
ENDCHAR
STARTCHAR c44
ENCODING -1 44
SWIDTH 161 0
DWIDTH 5 0
BBX 3 6 2 -3
BITMAP
E0
E0
60
40
40
80
ENDCHAR
STARTCHAR c45
ENCODING -1 45
SWIDTH 193 0
DWIDTH 6 0
BBX 6 1 0 5
BITMAP
FC
ENDCHAR
STARTCHAR c46
ENCODING -1 46
SWIDTH 161 0
DWIDTH 5 0
BBX 3 3 2 0
BITMAP
E0
E0
60
ENDCHAR
STARTCHAR c47
ENCODING -1 47
SWIDTH 322 0
DWIDTH 10 0
BBX 8 15 1 0
BITMAP
01
01
02
02
04
04
08
18
10
20
20
40
40
80
80
ENDCHAR
STARTCHAR c48
ENCODING -1 48
SWIDTH 354 0
DWIDTH 11 0
BBX 9 15 1 0
BITMAP
1C00
6300
6300
C180
C180
C180
C180
C180
C180
C180
C180
C180
6300
6300
1C00
ENDCHAR
STARTCHAR c49
ENCODING -1 49
SWIDTH 354 0
DWIDTH 11 0
BBX 7 15 2 0
BITMAP
18
38
D8
18
18
18
18
18
18
18
18
18
18
18
7E
ENDCHAR
STARTCHAR c50
ENCODING -1 50
SWIDTH 354 0
DWIDTH 11 0
BBX 9 15 1 0
BITMAP
3E00
C700
0300
0300
0300
0300
0600
0600
0C00
0800
1800
3000
2080
7F00
FF00
ENDCHAR
STARTCHAR c51
ENCODING -1 51
SWIDTH 354 0
DWIDTH 11 0
BBX 8 15 1 0
BITMAP
3E
C7
03
03
02
04
38
7E
07
03
03
03
02
E4
78
ENDCHAR
STARTCHAR c52
ENCODING -1 52
SWIDTH 354 0
DWIDTH 11 0
BBX 11 15 0 0
BITMAP
0300
0700
0B00
0B00
1300
1300
2300
4300
4300
FFE0
FFE0
0300
0300
0300
0300
ENDCHAR
STARTCHAR c53
ENCODING -1 53
SWIDTH 354 0
DWIDTH 11 0
BBX 8 15 1 0
BITMAP
3F
3E
20
20
40
7C
7E
07
03
03
03
02
02
E4
78
ENDCHAR
STARTCHAR c54
ENCODING -1 54
SWIDTH 354 0
DWIDTH 11 0
BBX 9 15 1 0
BITMAP
0700
1800
3000
2000
6000
4000
CE00
D300
E180
C180
C180
C180
C100
6200
3C00
ENDCHAR
STARTCHAR c55
ENCODING -1 55
SWIDTH 354 0
DWIDTH 11 0
BBX 10 15 0 0
BITMAP
7FC0
7F80
8180
0100
0100
0300
0200
0200
0600
0400
0C00
0C00
0800
1800
1800
ENDCHAR
STARTCHAR c56
ENCODING -1 56
SWIDTH 354 0
DWIDTH 11 0
BBX 9 15 1 0
BITMAP
1E00
6300
C180
C180
C180
E100
7600
1C00
3700
4380
C180
C180
C180
6300
3E00
ENDCHAR
STARTCHAR c57
ENCODING -1 57
SWIDTH 354 0
DWIDTH 11 0
BBX 9 15 1 0
BITMAP
1E00
2300
4180
C180
C180
C180
C380
6580
3980
0100
0300
0200
0600
0C00
7000
ENDCHAR
STARTCHAR c58
ENCODING -1 58
SWIDTH 193 0
DWIDTH 6 0
BBX 3 11 2 0
BITMAP
E0
E0
E0
00
00
00
00
00
E0
E0
E0
ENDCHAR
STARTCHAR c59
ENCODING -1 59
SWIDTH 193 0
DWIDTH 6 0
BBX 3 14 2 -3
BITMAP
E0
E0
E0
00
00
00
00
00
E0
E0
60
40
40
80
ENDCHAR
STARTCHAR c60
ENCODING -1 60
SWIDTH 419 0
DWIDTH 13 0
BBX 12 11 0 0
BITMAP
0030
00C0
0300
0C00
3000
C000
3000
0C00
0300
00C0
0030
ENDCHAR
STARTCHAR c61
ENCODING -1 61
SWIDTH 387 0
DWIDTH 12 0
BBX 10 4 1 4
BITMAP
FFC0
0000
0000
FFC0
ENDCHAR
STARTCHAR c62
ENCODING -1 62
SWIDTH 419 0
DWIDTH 13 0
BBX 12 11 1 0
BITMAP
C000
3000
0C00
0300
00C0
0030
00C0
0300
0C00
3000
C000
ENDCHAR
STARTCHAR c63
ENCODING -1 63
SWIDTH 322 0
DWIDTH 10 0
BBX 8 15 1 0
BITMAP
3E
67
C3
C3
C3
06
06
0C
08
08
00
00
1C
1C
1C
ENDCHAR
STARTCHAR c64
ENCODING -1 64
SWIDTH 645 0
DWIDTH 20 0
BBX 18 18 1 -3
BITMAP
00FE00
030380
0C0080
1800C0
303C40
20CCC0
618C40
4318C0
C31840
C61880
C63080
C65100
46D300
671C00
600000
300000
1C3800
03C000
ENDCHAR
STARTCHAR c65
ENCODING -1 65
SWIDTH 483 0
DWIDTH 15 0
BBX 15 15 0 0
BITMAP
0180
0180
0180
02C0
02C0
0460
0460
0860
0FF0
1030
1030
3038
2018
6018
F87E
ENDCHAR
STARTCHAR c66
ENCODING -1 66
SWIDTH 451 0
DWIDTH 14 0
BBX 11 15 1 0
BITMAP
FF00
30C0
3060
3060
3060
3060
30C0
3F00
30C0
3060
3060
3060
3060
30C0
FF00
ENDCHAR
STARTCHAR c67
ENCODING -1 67
SWIDTH 516 0
DWIDTH 16 0
BBX 13 15 1 0
BITMAP
07F8
1838
3008
6008
6000
C000
C000
C000
C000
C000
6000
6008
3008
1830
07C0
ENDCHAR
STARTCHAR c68
ENCODING -1 68
SWIDTH 548 0
DWIDTH 17 0
BBX 15 15 1 0
BITMAP
FFC0
3030
3018
300C
300C
3006
3006
3006
3006
3006
300C
300C
3018
3030
FFC0
ENDCHAR
STARTCHAR c69
ENCODING -1 69
SWIDTH 483 0
DWIDTH 15 0
BBX 12 15 1 0
BITMAP
FFF0
3030
3010
3010
3000
3040
3040
3FC0
3040
3040
3000
3010
3010
3030
FFF0
ENDCHAR
STARTCHAR c70
ENCODING -1 70
SWIDTH 451 0
DWIDTH 14 0
BBX 12 15 1 0
BITMAP
FFF0
3030
3010
3010
3000
3040
3040
3FC0
3040
3040
3000
3000
3000
3000
FC00
ENDCHAR
STARTCHAR c71
ENCODING -1 71
SWIDTH 548 0
DWIDTH 17 0
BBX 15 15 1 0
BITMAP
07F8
1838
3008
6008
6000
C000
C000
C07E
C018
C018
6018
6018
3018
1818
07E0
ENDCHAR
STARTCHAR c72
ENCODING -1 72
SWIDTH 548 0
DWIDTH 17 0
BBX 15 15 1 0
BITMAP
FC7E
3018
3018
3018
3018
3018
3018
3FF8
3018
3018
3018
3018
3018
3018
FC7E
ENDCHAR
STARTCHAR c73
ENCODING -1 73
SWIDTH 258 0
DWIDTH 8 0
BBX 6 15 1 0
BITMAP
FC
30
30
30
30
30
30
30
30
30
30
30
30
30
FC
ENDCHAR
STARTCHAR c74
ENCODING -1 74
SWIDTH 258 0
DWIDTH 8 0
BBX 7 15 0 0
BITMAP
7E
18
18
18
18
18
18
18
18
18
18
18
D8
D0
60
ENDCHAR
STARTCHAR c75
ENCODING -1 75
SWIDTH 483 0
DWIDTH 15 0
BBX 14 15 1 0
BITMAP
FC7C
3030
3020
3040
3080
3100
3200
3700
3380
31C0
30C0
30E0
3070
3030
FC7C
ENDCHAR
STARTCHAR c76
ENCODING -1 76
SWIDTH 387 0
DWIDTH 12 0
BBX 11 15 1 0
BITMAP
FC00
3000
3000
3000
3000
3000
3000
3000
3000
3000
3000
3020
3020
3060
FFE0
ENDCHAR
STARTCHAR c77
ENCODING -1 77
SWIDTH 645 0
DWIDTH 20 0
BBX 18 15 1 0
BITMAP
F807C0
380700
380700
2C0B00
2C0B00
2C0B00
261300
261300
262300
232300
232300
234300
21C300
218300
F88FC0
ENDCHAR
STARTCHAR c78
ENCODING -1 78
SWIDTH 548 0
DWIDTH 17 0
BBX 15 15 1 0
BITMAP
F03E
3808
3808
2C08
2E08
2708
2308
2388
21C8
20E8
2068
2078
2038
2018
F808
ENDCHAR
STARTCHAR c79
ENCODING -1 79
SWIDTH 548 0
DWIDTH 17 0
BBX 15 15 1 0
BITMAP
07C0
1830
3018
600C
600C
C006
C006
C006
C006
C006
600C
600C
3018
1830
07C0
ENDCHAR
STARTCHAR c80
ENCODING -1 80
SWIDTH 419 0
DWIDTH 13 0
BBX 11 15 1 0
BITMAP
FF00
30C0
3060
3060
3060
3060
30C0
3F00
3000
3000
3000
3000
3000
3000
FC00
ENDCHAR
STARTCHAR c81
ENCODING -1 81
SWIDTH 548 0
DWIDTH 17 0
BBX 15 19 1 -4
BITMAP
07C0
1830
3018
600C
600C
C006
C006
C006
C006
C006
600C
600C
3018
1830
07C0
00E0
0070
0038
001E
ENDCHAR
STARTCHAR c82
ENCODING -1 82
SWIDTH 451 0
DWIDTH 14 0
BBX 13 15 1 0
BITMAP
FF00
30C0
3060
3060
3060
3040
3080
3F00
3380
3180
30C0
30E0
3060
3030
FC38
ENDCHAR
STARTCHAR c83
ENCODING -1 83
SWIDTH 419 0
DWIDTH 13 0
BBX 9 15 2 0
BITMAP
1F80
6380
C080
C080
C000
E000
7800
3E00
0F00
0380
0180
8180
8180
E300
FC00
ENDCHAR
STARTCHAR c84
ENCODING -1 84
SWIDTH 451 0
DWIDTH 14 0
BBX 12 15 1 0
BITMAP
FFF0
C630
8610
8610
0600
0600
0600
0600
0600
0600
0600
0600
0600
0600
1F80
ENDCHAR
STARTCHAR c85
ENCODING -1 85
SWIDTH 548 0
DWIDTH 17 0
BBX 15 15 1 0
BITMAP
FC3E
3008
3008
3008
3008
3008
3008
3008
3008
3008
3008
3008
1810
1C30
07C0
ENDCHAR
STARTCHAR c86
ENCODING -1 86
SWIDTH 451 0
DWIDTH 14 0
BBX 14 15 0 0
BITMAP
FC7C
3018
3018
3010
1830
1820
1820
0C40
0C40
0C40
0680
0680
0300
0300
0300
ENDCHAR
STARTCHAR c87
ENCODING -1 87
SWIDTH 645 0
DWIDTH 20 0
BBX 20 15 0 0
BITMAP
FDF9F0
306060
306060
306040
1870C0
187080
18B080
18B100
0C9900
0D1900
0D1A00
0D1A00
060C00
060C00
060C00
ENDCHAR
STARTCHAR c88
ENCODING -1 88
SWIDTH 483 0
DWIDTH 15 0
BBX 15 15 0 0
BITMAP
FE7C
3830
1820
0C40
0EC0
0680
0300
0300
0580
08C0
18E0
1060
2030
6038
F0FE
ENDCHAR
STARTCHAR c89
ENCODING -1 89
SWIDTH 419 0
DWIDTH 13 0
BBX 13 15 0 0
BITMAP
FC78
3030
3820
1820
1C40
0C40
0E80
0680
0700
0300
0300
0300
0300
0300
0FC0
ENDCHAR
STARTCHAR c90
ENCODING -1 90
SWIDTH 451 0
DWIDTH 14 0
BBX 12 15 1 0
BITMAP
7FF0
6060
40E0
40C0
0180
0380
0300
0600
0E00
1C00
1800
3010
7010
6030
FFF0
ENDCHAR
STARTCHAR c91
ENCODING -1 91
SWIDTH 258 0
DWIDTH 8 0
BBX 5 20 2 -4
BITMAP
F8
C0
C0
C0
C0
C0
C0
C0
C0
C0
C0
C0
C0
C0
C0
C0
C0
C0
C0
F8
ENDCHAR
STARTCHAR c92
ENCODING -1 92
SWIDTH 322 0
DWIDTH 10 0
BBX 8 15 1 0
BITMAP
80
80
40
40
20
20
10
18
08
04
04
02
02
01
01
ENDCHAR
STARTCHAR c93
ENCODING -1 93
SWIDTH 258 0
DWIDTH 8 0
BBX 5 20 1 -4
BITMAP
F8
18
18
18
18
18
18
18
18
18
18
18
18
18
18
18
18
18
18
F8
ENDCHAR
STARTCHAR c94
ENCODING -1 94
SWIDTH 387 0
DWIDTH 12 0
BBX 9 12 1 0
BITMAP
0800
1C00
2A00
4900
8880
0800
0800
0800
0800
0800
0800
0800
ENDCHAR
STARTCHAR c95
ENCODING -1 95
SWIDTH 387 0
DWIDTH 12 0
BBX 10 1 1 -1
BITMAP
FFC0
ENDCHAR
STARTCHAR c96
ENCODING -1 96
SWIDTH 354 0
DWIDTH 11 0
BBX 4 4 3 13
BITMAP
C0
C0
60
10
ENDCHAR
STARTCHAR c97
ENCODING -1 97
SWIDTH 354 0
DWIDTH 11 0
BBX 10 11 1 0
BITMAP
3E00
6300
6300
0300
1F00
6300
C300
C300
C500
FB40
7380
ENDCHAR
STARTCHAR c98
ENCODING -1 98
SWIDTH 387 0
DWIDTH 12 0
BBX 11 16 0 0
BITMAP
3000
F000
3000
3000
3000
3380
37C0
38E0
3060
3060
3060
3060
3040
30C0
3980
2E00
ENDCHAR
STARTCHAR c99
ENCODING -1 99
SWIDTH 322 0
DWIDTH 10 0
BBX 8 11 1 0
BITMAP
1F
23
41
C1
C0
C0
C0
C0
E1
7E
3C
ENDCHAR
STARTCHAR c100
ENCODING -1 100
SWIDTH 387 0
DWIDTH 12 0
BBX 11 16 1 0
BITMAP
0180
0780
0180
0180
0180
0F80
3380
6180
4180
C180
C180
C180
C180
E380
7DE0
3980
ENDCHAR
STARTCHAR c101
ENCODING -1 101
SWIDTH 322 0
DWIDTH 10 0
BBX 8 11 1 0
BITMAP
1E
27
43
C3
FF
C0
C0
C0
E1
7E
3C
ENDCHAR
STARTCHAR c102
ENCODING -1 102
SWIDTH 225 0
DWIDTH 7 0
BBX 7 16 0 0
BITMAP
0E
16
30
30
30
FE
30
30
30
30
30
30
30
30
30
FC
ENDCHAR
STARTCHAR c103
ENCODING -1 103
SWIDTH 322 0
DWIDTH 10 0
BBX 9 16 0 -5
BITMAP
1F80
2200
6300
6300
6300
6200
3C00
2000
4000
7F00
3F80
2180
4180
C180
E300
7C00
ENDCHAR
STARTCHAR c104
ENCODING -1 104
SWIDTH 387 0
DWIDTH 12 0
BBX 12 16 0 0
BITMAP
3000
F000
3000
3000
3000
3380
37C0
38C0
30C0
30C0
30C0
30C0
30C0
30C0
30C0
FBF0
ENDCHAR
STARTCHAR c105
ENCODING -1 105
SWIDTH 193 0
DWIDTH 6 0
BBX 6 16 0 0
BITMAP
30
30
00
00
00
30
F0
30
30
30
30
30
30
30
30
FC
ENDCHAR
STARTCHAR c106
ENCODING -1 106
SWIDTH 225 0
DWIDTH 7 0
BBX 5 21 0 -5
BITMAP
18
18
00
00
00
18
78
18
18
18
18
18
18
18
18
18
18
18
18
D0
E0
ENDCHAR
STARTCHAR c107
ENCODING -1 107
SWIDTH 354 0
DWIDTH 11 0
BBX 11 16 0 0
BITMAP
3000
F000
3000
3000
3000
33E0
3180
3100
3200
3400
3E00
3700
3300
3180
31C0
FBE0
ENDCHAR
STARTCHAR c108
ENCODING -1 108
SWIDTH 193 0
DWIDTH 6 0
BBX 6 16 0 0
BITMAP
30
F0
30
30
30
30
30
30
30
30
30
30
30
30
30
FC
ENDCHAR
STARTCHAR c109
ENCODING -1 109
SWIDTH 580 0
DWIDTH 18 0
BBX 18 11 0 0
BITMAP
338E00
F7DF00
38E300
30C300
30C300
30C300
30C300
30C300
30C300
30C300
FBEFC0
ENDCHAR
STARTCHAR c110
ENCODING -1 110
SWIDTH 387 0
DWIDTH 12 0
BBX 12 11 0 0
BITMAP
3380
F7C0
38C0
30C0
30C0
30C0
30C0
30C0
30C0
30C0
FBF0
ENDCHAR
STARTCHAR c111
ENCODING -1 111
SWIDTH 387 0
DWIDTH 12 0
BBX 10 11 1 0
BITMAP
1F00
2380
41C0
C0C0
C0C0
C0C0
C0C0
C0C0
E080
7100
3E00
ENDCHAR
STARTCHAR c112
ENCODING -1 112
SWIDTH 387 0
DWIDTH 12 0
BBX 11 16 0 -5
BITMAP
3380
F7C0
38E0
3060
3060
3060
3060
3040
30C0
3980
3E00
3000
3000
3000
3000
FC00
ENDCHAR
STARTCHAR c113
ENCODING -1 113
SWIDTH 387 0
DWIDTH 12 0
BBX 11 16 1 -5
BITMAP
0E80
3380
6180
4180
C180
C180
C180
C180
E380
7D80
3980
0180
0180
0180
0180
07E0
ENDCHAR
STARTCHAR c114
ENCODING -1 114
SWIDTH 258 0
DWIDTH 8 0
BBX 8 11 0 0
BITMAP
33
F7
38
30
30
30
30
30
30
30
FC
ENDCHAR
STARTCHAR c115
ENCODING -1 115
SWIDTH 290 0
DWIDTH 9 0
BBX 7 11 1 0
BITMAP
3A
C6
C2
C2
F0
7C
1E
86
86
C6
B8
ENDCHAR
STARTCHAR c116
ENCODING -1 116
SWIDTH 225 0
DWIDTH 7 0
BBX 7 14 0 0
BITMAP
10
10
30
FE
30
30
30
30
30
30
30
32
3C
18
ENDCHAR
STARTCHAR c117
ENCODING -1 117
SWIDTH 387 0
DWIDTH 12 0
BBX 12 11 0 0
BITMAP
30C0
F3C0
30C0
30C0
30C0
30C0
30C0
30C0
31C0
3EF0
1CC0
ENDCHAR
STARTCHAR c118
ENCODING -1 118
SWIDTH 354 0
DWIDTH 11 0
BBX 11 11 0 0
BITMAP
F1E0
60C0
6080
3080
3100
3100
1A00
1A00
0C00
0C00
0C00
ENDCHAR
STARTCHAR c119
ENCODING -1 119
SWIDTH 580 0
DWIDTH 18 0
BBX 18 11 0 0
BITMAP
F1E3C0
60C180
60C100
30E100
316200
316200
1A3400
1A3400
0C1800
0C1800
0C1800
ENDCHAR
STARTCHAR c120
ENCODING -1 120
SWIDTH 354 0
DWIDTH 11 0
BBX 11 11 0 0
BITMAP
F9E0
3080
3900
1900
0E00
0400
0E00
1300
1380
2180
F3E0
ENDCHAR
STARTCHAR c121
ENCODING -1 121
SWIDTH 354 0
DWIDTH 11 0
BBX 11 16 0 -5
BITMAP
F1E0
60C0
6080
3080
3100
3100
1A00
1A00
0C00
0C00
0C00
0800
0800
1000
D000
E000
ENDCHAR
STARTCHAR c122
ENCODING -1 122
SWIDTH 322 0
DWIDTH 10 0
BBX 9 11 0 0
BITMAP
7F80
6300
4600
4600
0C00
1C00
1800
3080
3080
6180
FF80
ENDCHAR
STARTCHAR c123
ENCODING -1 123
SWIDTH 258 0
DWIDTH 8 0
BBX 7 21 0 -5
BITMAP
0E
10
30
30
30
30
30
30
30
20
C0
20
30
30
30
30
30
30
30
10
0E
ENDCHAR
STARTCHAR c124
ENCODING -1 124
SWIDTH 258 0
DWIDTH 8 0
BBX 2 21 3 -5
BITMAP
C0
C0
C0
C0
C0
C0
C0
C0
C0
C0
C0
C0
C0
C0
C0
C0
C0
C0
C0
C0
C0
ENDCHAR
STARTCHAR c125
ENCODING -1 125
SWIDTH 258 0
DWIDTH 8 0
BBX 7 21 1 -5
BITMAP
E0
10
18
18
18
18
18
18
18
08
06
08
18
18
18
18
18
18
18
10
E0
ENDCHAR
STARTCHAR c126
ENCODING -1 126
SWIDTH 419 0
DWIDTH 13 0
BBX 11 4 1 4
BITMAP
7820
8C20
8620
83C0
ENDCHAR
STARTCHAR c128
ENCODING -1 128
SWIDTH 483 0
DWIDTH 15 0
BBX 15 18 0 0
BITMAP
0C30
0C30
0000
0180
0180
0380
02C0
04C0
04C0
0860
0860
0FF0
1030
1030
2038
2018
6018
F07E
ENDCHAR
STARTCHAR c129
ENCODING -1 129
SWIDTH 548 0
DWIDTH 17 0
BBX 15 18 1 0
BITMAP
0C60
0C60
0000
07C0
1830
3018
600C
600C
C006
C006
C006
C006
C006
600C
600C
3018
1830
07C0
ENDCHAR
STARTCHAR c130
ENCODING -1 130
SWIDTH 548 0
DWIDTH 17 0
BBX 15 18 1 0
BITMAP
0C30
0C30
0000
FC3E
3008
3008
3008
3008
3008
3008
3008
3008
3008
3008
3008
1810
1C30
07C0
ENDCHAR
STARTCHAR c131
ENCODING -1 131
SWIDTH 354 0
DWIDTH 11 0
BBX 10 15 1 0
BITMAP
3300
3300
0000
0000
3E00
6300
6300
0300
1F00
6300
C300
C300
C500
FB40
7380
ENDCHAR
STARTCHAR c132
ENCODING -1 132
SWIDTH 387 0
DWIDTH 12 0
BBX 10 15 1 0
BITMAP
3300
3300
0000
0000
1F00
2380
41C0
C0C0
C0C0
C0C0
C0C0
C0C0
E080
7100
3E00
ENDCHAR
STARTCHAR c133
ENCODING -1 133
SWIDTH 387 0
DWIDTH 12 0
BBX 12 15 0 0
BITMAP
1980
1980
0000
0000
30C0
F3C0
30C0
30C0
30C0
30C0
30C0
30C0
31C0
3EF0
1CC0
ENDCHAR
STARTCHAR c134
ENCODING -1 134
SWIDTH 354 0
DWIDTH 11 0
BBX 10 17 1 0
BITMAP
0C00
1E00
3300
4080
0000
0000
3E00
6300
6300
0300
1F00
6300
C300
C300
C500
FB40
7380
ENDCHAR
STARTCHAR c135
ENCODING -1 135
SWIDTH 322 0
DWIDTH 10 0
BBX 9 17 1 0
BITMAP
0C00
1E00
3300
4080
0000
0000
1E00
2700
4300
C300
FF00
C000
C000
C000
E100
7E00
3C00
ENDCHAR
STARTCHAR c136
ENCODING -1 136
SWIDTH 193 0
DWIDTH 6 0
BBX 6 17 0 0
BITMAP
30
78
48
84
00
00
30
F0
30
30
30
30
30
30
30
30
FC
ENDCHAR
STARTCHAR c137
ENCODING -1 137
SWIDTH 387 0
DWIDTH 12 0
BBX 10 17 1 0
BITMAP
0C00
1E00
3300
4080
0000
0000
1F00
2380
41C0
C0C0
C0C0
C0C0
C0C0
C0C0
E080
7100
3E00
ENDCHAR
STARTCHAR c138
ENCODING -1 138
SWIDTH 387 0
DWIDTH 12 0
BBX 12 17 0 0
BITMAP
0600
0F00
1980
2040
0000
0000
30C0
F3C0
30C0
30C0
30C0
30C0
30C0
30C0
31C0
3EF0
1CC0
ENDCHAR
STARTCHAR c139
ENCODING -1 139
SWIDTH 354 0
DWIDTH 11 0
BBX 10 17 1 0
BITMAP
3000
3000
1800
0400
0000
0000
3E00
6300
6300
0300
1F00
6300
C300
C300
C500
FB40
7380
ENDCHAR
STARTCHAR c140
ENCODING -1 140
SWIDTH 322 0
DWIDTH 10 0
BBX 8 17 1 0
BITMAP
18
18
0C
02
00
00
1E
27
43
C3
FF
C0
C0
C0
E1
7E
3C
ENDCHAR
STARTCHAR c141
ENCODING -1 141
SWIDTH 193 0
DWIDTH 6 0
BBX 6 17 0 0
BITMAP
60
60
30
08
00
00
30
F0
30
30
30
30
30
30
30
30
FC
ENDCHAR
STARTCHAR c142
ENCODING -1 142
SWIDTH 387 0
DWIDTH 12 0
BBX 10 17 1 0
BITMAP
1800
1800
0C00
0200
0000
0000
1F00
2380
41C0
C0C0
C0C0
C0C0
C0C0
C0C0
E080
7100
3E00
ENDCHAR
STARTCHAR c143
ENCODING -1 143
SWIDTH 387 0
DWIDTH 12 0
BBX 12 17 0 0
BITMAP
0C00
0C00
0600
0100
0000
0000
30C0
F3C0
30C0
30C0
30C0
30C0
30C0
30C0
31C0
3EF0
1CC0
ENDCHAR
STARTCHAR c144
ENCODING -1 144
SWIDTH 322 0
DWIDTH 10 0
BBX 8 17 1 0
BITMAP
06
06
0C
10
00
00
1E
27
43
C3
FF
C0
C0
C0
E1
7E
3C
ENDCHAR
STARTCHAR c145
ENCODING -1 145
SWIDTH 322 0
DWIDTH 10 0
BBX 8 15 1 0
BITMAP
33
33
00
00
1E
27
43
C3
FF
C0
C0
C0
E1
7E
3C
ENDCHAR
STARTCHAR c146
ENCODING -1 146
SWIDTH 193 0
DWIDTH 6 0
BBX 6 15 0 0
BITMAP
CC
CC
00
00
30
F0
30
30
30
30
30
30
30
30
FC
ENDCHAR
STARTCHAR c147
ENCODING -1 147
SWIDTH 322 0
DWIDTH 10 0
BBX 8 16 1 -5
BITMAP
1F
23
41
C1
C0
C0
C0
C1
61
7E
1C
00
1C
1C
04
08
ENDCHAR
STARTCHAR c148
ENCODING -1 148
SWIDTH 354 0
DWIDTH 11 0
BBX 10 17 1 0
BITMAP
0600
0600
0C00
1000
0000
0000
3E00
6300
6300
0300
1F00
6300
C300
C300
C500
FB40
7380
ENDCHAR
STARTCHAR c149
ENCODING -1 149
SWIDTH 387 0
DWIDTH 12 0
BBX 12 16 0 0
BITMAP
1C80
2E80
2700
0000
0000
3380
F7C0
38C0
30C0
30C0
30C0
30C0
30C0
30C0
30C0
FBF0
ENDCHAR
STARTCHAR c155
ENCODING -1 155
SWIDTH 516 0
DWIDTH 16 0
BBX 16 1 0 5
BITMAP
FFFF
ENDCHAR
STARTCHAR c159
ENCODING -1 159
SWIDTH 354 0
DWIDTH 11 0
BBX 0 0 0 0
BITMAP
ENDCHAR
ENDFONT
